<svg id="visual" viewBox="0 0 900 600" width="900" height="600" xmlns="http://www.w3.org/2000/svg" xmlns:xlink="http://www.w3.org/1999/xlink" version="1.1"><rect x="0" y="0" width="900" height="600" fill="#651c94"></rect><path d="M0 128L129 155L257 134L386 260L514 250L643 288L771 205L900 200L900 601L771 601L643 601L514 601L386 601L257 601L129 601L0 601Z" fill="#009473"></path><path d="M0 269L129 240L257 290L386 338L514 359L643 313L771 248L900 271L900 601L771 601L643 601L514 601L386 601L257 601L129 601L0 601Z" fill="#0097b0"></path><path d="M0 341L129 327L257 345L386 297L514 365L643 417L771 340L900 358L900 601L771 601L643 601L514 601L386 601L257 601L129 601L0 601Z" fill="#0090d6"></path><path d="M0 478L129 439L257 473L386 382L514 377L643 425L771 404L900 428L900 601L771 601L643 601L514 601L386 601L257 601L129 601L0 601Z" fill="#097eee"></path><path d="M0 507L129 501L257 509L386 449L514 538L643 485L771 478L900 457L900 601L771 601L643 601L514 601L386 601L257 601L129 601L0 601Z" fill="#715df2"></path></svg>