<svg id="visual" viewBox="0 0 900 600" width="900" height="600" xmlns="http://www.w3.org/2000/svg" xmlns:xlink="http://www.w3.org/1999/xlink" version="1.1"><rect x="0" y="0" width="900" height="600" fill="#651c94"></rect><path d="M0 269L129 288L257 274L386 361L514 355L643 381L771 324L900 320L900 601L771 601L643 601L514 601L386 601L257 601L129 601L0 601Z" fill="#009473"></path><path d="M0 368L129 348L257 383L386 417L514 431L643 399L771 354L900 369L900 601L771 601L643 601L514 601L386 601L257 601L129 601L0 601Z" fill="#0097b0"></path><path d="M0 418L129 409L257 421L386 387L514 435L643 471L771 418L900 431L900 601L771 601L643 601L514 601L386 601L257 601L129 601L0 601Z" fill="#0090d6"></path><path d="M0 514L129 487L257 511L386 447L514 444L643 478L771 463L900 479L900 601L771 601L643 601L514 601L386 601L257 601L129 601L0 601Z" fill="#097eee"></path><path d="M0 535L129 530L257 536L386 494L514 557L643 519L771 514L900 500L900 601L771 601L643 601L514 601L386 601L257 601L129 601L0 601Z" fill="#715df2"></path></svg>